<?xml version="1.0" standalone="no"?>
<!DOCTYPE svg PUBLIC "-//W3C//DTD SVG 1.1//EN" "http://www.w3.org/Graphics/SVG/1.1/DTD/svg11.dtd" >
<svg>
<metadata>
Created by FontForge 20090622 at Mon Feb 19 17:34:02 2018
 By deploy user
Typeface &#194;&#169; (your company). 2005. All Rights Reserved
</metadata>
<defs>
<font id="LicensePlate" horiz-adv-x="1139" >
  <font-face 
    font-family="License Plate"
    font-weight="400"
    font-stretch="normal"
    units-per-em="2048"
    panose-1="2 0 0 0 0 0 0 0 0 0"
    ascent="1638"
    descent="-410"
    x-height="1632"
    cap-height="1632"
    bbox="90 0 1280 1641"
    underline-thickness="150"
    underline-position="-142"
    unicode-range="U+0020-U+F005"
  />
<missing-glyph horiz-adv-x="1536" 
d="M256 0v1280h1024v-1280h-1024zM288 32h960v1216h-960v-1216z" />
    <glyph glyph-name=".notdef" horiz-adv-x="1536" 
d="M256 0v1280h1024v-1280h-1024zM288 32h960v1216h-960v-1216z" />
    <glyph glyph-name=".null" horiz-adv-x="0" 
 />
    <glyph glyph-name="nonmarkingreturn" horiz-adv-x="569" 
 />
    <glyph glyph-name="space" unicode=" " horiz-adv-x="899" 
 />
    <glyph glyph-name="space" unicode="&#xa0;" horiz-adv-x="899" 
 />
    <glyph glyph-name="exclam" unicode="!" horiz-adv-x="569" 
 />
    <glyph glyph-name="quotedbl" unicode="&#x22;" horiz-adv-x="727" 
 />
    <glyph glyph-name="numbersign" unicode="#" 
 />
    <glyph glyph-name="dollar" unicode="$" 
 />
    <glyph glyph-name="percent" unicode="%" horiz-adv-x="1821" 
 />
    <glyph glyph-name="ampersand" unicode="&#x26;" horiz-adv-x="1366" 
 />
    <glyph glyph-name="quotesingle" unicode="'" horiz-adv-x="391" 
 />
    <glyph glyph-name="parenleft" unicode="(" horiz-adv-x="682" 
 />
    <glyph glyph-name="parenright" unicode=")" horiz-adv-x="682" 
 />
    <glyph glyph-name="asterisk" unicode="*" horiz-adv-x="797" 
 />
    <glyph glyph-name="plus" unicode="+" horiz-adv-x="1196" 
 />
    <glyph glyph-name="comma" unicode="," horiz-adv-x="569" 
 />
    <glyph glyph-name="hyphen" unicode="-" horiz-adv-x="902" 
d="M375 1010h152q88 0 88 -71v-115q0 -72 -90 -72h-154q-84 0 -83 75l-1 115q0 68 88 68z" />
    <glyph glyph-name="hyphen" unicode="&#xad;" horiz-adv-x="902" 
d="M375 1010h152q88 0 88 -71v-115q0 -72 -90 -72h-154q-84 0 -83 75l-1 115q0 68 88 68z" />
    <glyph glyph-name="period" unicode="." horiz-adv-x="569" 
 />
    <glyph glyph-name="slash" unicode="/" horiz-adv-x="569" 
 />
    <glyph glyph-name="zero" unicode="0" horiz-adv-x="899" 
d="M449 1633q336 0 336 -294v-938q0 -365 -337 -365q-338 0 -338 375v926q0 296 339 296zM299 1299v-873q1 -212 154 -210q153 1 153 210v873q1 132 -155 133q-152 1 -152 -133z" />
    <glyph glyph-name="one" unicode="1" horiz-adv-x="899" 
d="M453 1635h105q51 0 52 -44l-1 -1523v-1q0 -31 -50 -31h-111q-45 0 -45 32v1215q0 89 -30 89h-68q-51 0 -51 63v57q12 74 75 83q57 0 92 44q12 13 32 16z" />
    <glyph glyph-name="two" unicode="2" horiz-adv-x="899" 
d="M451 1631q343 0 343 -325v-48q-23 -133 -155 -252q-251 -307 -324 -700q-11 -60 44 -60h378q57 0 57 -48v-109q0 -55 -56 -55h-565q-71 0 -71 90v122q40 491 333 832q79 95 140 152q16 28 16 76q1 120 -141.5 120t-142.5 -120q-9 -48 -75 -48h-61q-64 0 -69 48
q0 325 349 325z" />
    <glyph glyph-name="three" unicode="3" horiz-adv-x="899" 
d="M473 1628q306 0 318 -284v-281q0 -61 -32 -110q-51 -31 -51 -80q-1 -23 49 -87q33 -53 33 -162v-289q0 -299 -331 -299q-347 0 -347 285v16q0 67 46 67h117q33 -30 30 -54q12 -113 153 -114q141 3 142 168l-1 220q1 107 -73 131q-102 31 -102 90v69q0 39 103 80
q75 41 72 144v166q0 127 -141 130q-154 0 -154 -123q0 -47 -131 -47q-61 0 -60 80v17q0 267 329 267h31z" />
    <glyph glyph-name="four" unicode="4" horiz-adv-x="899" 
d="M678 1627q42 0 42 -40v-1023q0 -62 25 -62q41 0 45 -40v-88q-4 -46 -40 -48q-30 0 -30 -60v-162q0 -69 -59 -69h-58q-59 0 -59 68v177q0 46 -46 46h-316q-57 2 -57 55v103q5 61 24 112l285 988q17 43 60 43h184zM495 1137q-17 -7 -37 -65l-148 -530q-16 -52 72 -52h77
q85 -8 85 66v570q0 20 -49 11z" />
    <glyph glyph-name="five" unicode="5" horiz-adv-x="899" 
d="M166 1627h552q57 0 57 -51v-71q0 -51 -50 -51h-359q-84 0 -84 -51v-258q0 -54 52 -54q64 20 132 10q192 -39 270 -168q39 -59 39 -157v-419q0 -318 -325 -321q-316 16 -350 282q0 63 58 63q124 0 135 -63q45 -84 157 -87q130 3 155 87v486q-3 60 -75 111q-47 20 -84 20
q-68 0 -124 -48q-40 -44 -40 -95q0 -26 -140 -29q-42 0 -42 61v740q0 63 66 63z" />
    <glyph glyph-name="six" unicode="6" horiz-adv-x="898" 
d="M478 1635q189 0 266 -172q24 -53 32 -113q0 -48 -40 -66q-138 -12 -138 19q2 152 -156 152q-148 0 -148 -171l3 -268q7 -43 36 -49q58 12 112 7q334 -8 334 -306v-311q0 -321 -295 -321h-61q-309 0 -312 315v947q0 337 291 337h76zM302 635v-275q0 -137 148 -140
q155 2 155 105v310q-5 127 -155 129q-148 0 -148 -129z" />
    <glyph glyph-name="seven" unicode="7" horiz-adv-x="898" 
d="M157 1628h545q73 0 73 -31l1 -89q-1 -81 -32 -132q-39 -58 -129 -367.5t-151 -816.5q-14 -155 -63 -155l-61 -1q-88 0 -88 60q30 368 114 695t166 553l26 83q-6 28 -50 28h-349q-45 0 -59 37v108q14 28 57 28z" />
    <glyph glyph-name="eight" unicode="8" horiz-adv-x="902" 
d="M451 1632q327 0 327 -293v-287q0 -80 -47 -121l-29 -26q-19 -14 0 -30l31 -32q45 -50 45 -116v-326q0 -365 -331 -368q-338 0 -346 378v315q0 67 49 117l33 32q16 16 0 29l-36 29q-46 39 -46 119v285q0 295 346 295h4zM280 1173q0 -201 169 -201q150 0 150 198v125
q0 157 -150 157q-169 0 -169 -157v-122zM280 375q0 -165 169 -165q150 0 150 165v260q0 158 -150 158q-169 0 -169 -155v-263z" />
    <glyph glyph-name="nine" unicode="9" horiz-adv-x="898" 
d="M412 36q-189 0 -266 172q-24 53 -32 113q0 48 40 66q138 12 138 -19q-2 -152 156 -152q148 0 148 171l-3 298q-7 43 -36 49q-58 -12 -112 -7q-334 8 -334 306v281q0 321 295 321h61q309 0 312 -315v-947q0 -337 -291 -337h-76zM588 1066v245q0 137 -148 140
q-155 -2 -155 -105v-280q5 -127 155 -129q148 0 148 129z" />
    <glyph glyph-name="colon" unicode=":" horiz-adv-x="569" 
 />
    <glyph glyph-name="semicolon" unicode=";" horiz-adv-x="569" 
 />
    <glyph glyph-name="semicolon" unicode="&#x37e;" horiz-adv-x="569" 
 />
    <glyph glyph-name="less" unicode="&#x3c;" horiz-adv-x="1196" 
 />
    <glyph glyph-name="equal" unicode="=" horiz-adv-x="1196" 
 />
    <glyph glyph-name="greater" unicode="&#x3e;" horiz-adv-x="1196" 
 />
    <glyph glyph-name="question" unicode="?" 
 />
    <glyph glyph-name="at" unicode="@" horiz-adv-x="2079" 
 />
    <glyph glyph-name="A" unicode="A" horiz-adv-x="899" 
d="M378 1636h124q38 -20 45 -61l235 -1459q0 -72 -56 -80h-104q-52 23 -52 116q-6 130 -67 136l-100 -1q-66 -3 -75 -122l-10 -85q-10 -42 -54 -44h-109q-45 22 -45 72l228 1464q8 45 40 64zM378 636l-12 -78q-4 -78 27 -81h97q35 -2 29 82l-25 201q-8 59 -42 64
q-47 -1 -54 -61z" />
    <glyph glyph-name="B" unicode="B" horiz-adv-x="899" 
d="M159 1636h291q81 -5 112 -12q128 -45 175.5 -116t52.5 -116l-1 -332q-7 -113 -67 -172v-44q33 -41 48 -88t19 -120v-298q-7 -297 -193 -298h-436q-60 0 -60 78l1 1461q4 53 58 57zM301 1339v-290q-3 -89 41 -89h109q131 1 130 152v156q0 160 -131 160h-107q-43 0 -42 -89
zM300 684v-377q0 -69 43 -69h107q131 0 131 98v340q0 93 -130 93h-108q-41 -1 -43 -85z" />
    <glyph glyph-name="C" unicode="C" horiz-adv-x="899" 
d="M649 1306q-49 0 -49 35q0 88 -150 88q-152 0 -152 -123v-928q0 -138 152 -138q150 0 149 104q1 34 55 34h71q63 0 62 -32q1 -312 -337 -312q-348 0 -348 344v928q0 325 348 329q338 -4 338 -294q0 -35 -55 -35h-84z" />
    <glyph glyph-name="D" unicode="D" horiz-adv-x="899" 
d="M142 1631h324q294 0 296 -268v-1047q-1 -282 -296 -282h-304q-60 2 -60 92v1422q0 80 40 83zM288 1344v-1036q0 -68 56 -68h122q116 0 116 138v907q0 144 -116 144h-114q-64 0 -64 -85z" />
    <glyph glyph-name="E" unicode="E" horiz-adv-x="899" 
d="M154 1629h568q68 -3 68 -64v-54q0 -77 -66 -78h-386q-37 0 -36 -43l1 -376q0 -45 59 -45h188q52 0 52 -68v-72q-4 -56 -52 -56h-200q-48 1 -48 -64v-423q0 -49 40 -49h381q66 -8 63 -67v-65q1 -68 -65 -68h-541q-70 1 -70 67v1473q0 52 44 52z" />
    <glyph glyph-name="F" unicode="F" horiz-adv-x="899" 
d="M154 1629h568q68 -3 68 -64v-54q0 -77 -66 -78h-386q-37 0 -36 -43l1 -376q0 -45 59 -45h188q52 0 52 -68v-72q-4 -56 -52 -56h-200q-48 1 -48 -64v-598q0 -74 -67 -74h-55q-70 1 -70 67v1473q0 52 44 52z" />
    <glyph glyph-name="G" unicode="G" horiz-adv-x="902" 
d="M775 1309q0 -36 -76 -36q-91 0 -91 36q0 160 -176 160q-149 0 -149 -160v-943q0 -137 151 -139q174 2 174 139v162q0 109 -107 109q-69 0 -69 73q0 80 69 80h204q70 0 70 -68v-356q0 -330 -342 -330q-317 0 -317 328v947q0 330 316 330q343 0 343 -332z" />
    <glyph glyph-name="H" unicode="H" horiz-adv-x="899" 
d="M161 1636h82q67 0 67 -75v-529q-1 -60 47 -74h143q64 7 62 72v543q7 62 71 63h91q66 0 72 -75v-1456q0 -68 -66 -69h-95q-71 2 -74 55v598q0 68 -57 79h-128q-67 -7 -66 -73v-601q-2 -57 -52 -58h-108q-58 2 -60 62v1458q0 76 71 80z" />
    <glyph glyph-name="I" unicode="I" horiz-adv-x="899" 
d="M263 1632h385q54 0 55 -67l-1 -93q0 -55 -55 -56l-56 1q-48 9 -48 -45v-1028q0 -95 35 -95h69q55 -1 55 -59v-100q0 -54 -55 -54h-384q-57 0 -57 54v99q0 60 57 60h51q41 0 41 42v1081q0 45 -36 45h-56q-57 0 -57 55l1 92q-1 68 56 68z" />
    <glyph glyph-name="J" unicode="J" horiz-adv-x="899" 
d="M747 1636q29 0 29 -37v-1287q-4 -274 -320 -276h-12q-340 0 -344 308q0 56 72 56h65q65 0 65 -56q2 -112 151 -112q139 3 137 132v1235q0 37 28 37h129z" />
    <glyph glyph-name="K" unicode="K" horiz-adv-x="902" 
d="M258 1635q46 0 46 -64v-372q0 -44 28 0l201 395q16 41 44 41h156q58 0 34 -51l-252 -505q-18 -36 -3 -82l291 -904q5 -15 5 -26q0 -31 -41 -31h-118q-40 0 -59 62l-184 590q-18 51 -48 51h-20q-34 0 -34 -34v-631q6 -38 -40 -38h-108q-44 0 -44 47v1494q0 58 46 58h100z
" />
    <glyph glyph-name="L" unicode="L" horiz-adv-x="902" 
d="M168 1631h79q57 0 58 -64l-1 -1295q0 -40 48 -40h355q83 0 84 -57l-1 -67q1 -72 -82 -72h-540q-56 0 -56 52v1475q0 68 56 68z" />
    <glyph glyph-name="M" unicode="M" horiz-adv-x="899" 
d="M170 1635h69q43 -1 54 -39l121 -392q3 -19 28 -19h17q17 0 21 19l122 392q11 38 45 39h79q53 0 53 -61l1 -1484q-1 -54 -60 -54h-64q-55 0 -56 54v680q0 39 -34 39q-32 0 -62 -123q-23 -129 -41 -129h-25q-18 0 -48 128q-26 120 -64 120q-33 0 -33 -35l1 -680
q0 -54 -76 -54h-48q-59 0 -60 54v1484q0 61 60 61z" />
    <glyph glyph-name="N" unicode="N" horiz-adv-x="899" 
d="M234 1635q53 0 71 -61l213 -692q23 -64 48 -68q26 -1 25 57v703q1 61 55 61h88q45 0 45 -61v-1484q0 -54 -44 -54h-81q-56 0 -76 46l-216 736q-11 36 -32 41q-24 -2 -25 -89v-680q0 -54 -67 -54h-61q-67 0 -67 54v1484q0 61 65 61h59z" />
    <glyph glyph-name="O" unicode="O" horiz-adv-x="899" 
d="M450 1635q329 0 329 -284v-928q-1 -387 -329 -387q-340 0 -340 372v943q0 284 340 284zM281 1298l12 -917q0 -158 155 -159q152 1 152 159v917q0 157 -150 157q-169 0 -169 -157z" />
    <glyph glyph-name="P" unicode="P" horiz-adv-x="899" 
d="M365 796q-63 0 -63 -83v-608q0 -69 -70 -69h-58q-64 0 -64 72v1457q0 68 51 68h269q349 0 349 -285v-284q0 -268 -283 -268h-131zM302 1067q0 -91 56 -91h113q126 0 127 99v251q0 60 -40.5 91.5t-110.5 31.5h-57q-88 0 -88 -64v-318z" />
    <glyph glyph-name="Q" unicode="Q" horiz-adv-x="899" 
d="M451 1635q328 0 328 -337v-917q0 -83 -29 -145q-23 -43 4 -108q0 -62 -58 -92h-36q-47 30 -86 24q-78 -24 -124 -24q-340 0 -340 345v918q0 336 341 336zM293 1328v-1003q0 -132 158 -113q14 3 23 11v16l-64 84q-9 20 -4 44q27 45 66 56q23 6 66 -44q62 -51 62 23v925
q0 128 -151 129q-156 0 -156 -128z" />
    <glyph glyph-name="R" unicode="R" horiz-adv-x="899" 
d="M430 1633q356 0 356 -296v-300q0 -164 -188 -233q-9 -5 0 -34l188 -662q3 -12 3 -22q0 -50 -63 -50h-55q-58 0 -73 72l-148 625q-9 51 -45 61h-54q-60 -1 -60 -78v-608q0 -72 -65 -72h-52q-64 0 -64 72v1457q0 68 51 68h269zM291 1034q0 -91 56 -91h124q99 0 127 99v295
q0 60 -40.5 91.5t-110.5 31.5h-68q-88 0 -88 -64v-362z" />
    <glyph glyph-name="S" unicode="S" horiz-adv-x="902" 
d="M444 1635q327 0 327 -337q0 -84 -61 -84h-69q-61 0 -61 84q0 151 -138 151q-134 0 -134 -151q0 -131 63 -186l210 -249q155 -146 190 -482q0 -345 -328 -345q-340 0 -340 293q0 52 104 52q102 0 101 -38q0 -130 135 -130q138 0 138 120l-1 48q-48 291 -271 485l-122 142
q-85 97 -85 290q0 337 342 337z" />
    <glyph glyph-name="T" unicode="T" horiz-adv-x="895" 
d="M149 1632h630q34 0 34 -37v-137q0 -34 -25 -34h-187q-38 0 -37 -41l-1 -1315q0 -32 -29 -32h-140q-32 0 -32 32l-1 1315q0 41 -38 41h-182q-31 0 -30 37l-1 135q0 36 39 36z" />
    <glyph glyph-name="U" unicode="U" horiz-adv-x="899" 
d="M180 1635h47q75 0 76 -78v-1176q-1 -168 148 -168t149 168l1 1176q-1 78 57 78h64q57 0 57 -78v-1176q1 -345 -328 -345q-341 0 -341 345v1176q0 78 70 78z" />
    <glyph glyph-name="V" unicode="V" horiz-adv-x="899" 
d="M172 1635h62q70 0 75 -85l116 -652q10 -63 38.5 -66t33.5 70l107 648q9 85 70 85h80q48 0 56 -85l-253 -1403q-3 -99 -95 -108q-111 15 -110 108l-242 1403q13 85 62 85z" />
    <glyph glyph-name="W" unicode="W" horiz-adv-x="899" 
d="M177 144l-67 1403q0 85 60 85h60q48 0 56 -85l24 -473q0 -47 35 -47t43 47l30 474q6 63 42 64q33 0 35 -65l41 -473q9 -47 39.5 -47t30.5 47l21 473q1 85 65 85h62q50 0 56 -85l-60 -1403q-12 -108 -68 -108h-68q-49 0 -63 108l-48 347q-4 51 -42 57q-35 -11 -35 -55
l-38 -349q-9 -108 -74 -108h-52q-77 0 -85 108z" />
    <glyph glyph-name="X" unicode="X" horiz-adv-x="899" 
d="M156 1632h104q31 0 58 -85l98 -247q21 -68 52 -67q25 -2 48 67l98 247q28 83 46 85h106q59 0 59 -47q0 -16 -7 -38l-250 -674q-15 -41 0 -78l250 -681q10 -22 10 -38q0 -40 -62 -40h-95q-26 0 -57 78l-103 274q-13 40 -43 42q-38 -1 -50 -39l-100 -277q-30 -78 -57 -78
h-106q-45 0 -45 38q0 17 8 40l245 681q13 37 -2 78l-243 674q-7 24 -7 41q0 44 45 44z" />
    <glyph glyph-name="Y" unicode="Y" horiz-adv-x="898" 
d="M152 1632h91q30 0 55 -73l135 -441q34 -41 66 -2l147 443q23 72 47 73h83q42 -1 42 -50q0 -10 -2 -23l-243 -773q-7 -15 -7 -45v-652q0 -55 -50 -55l-103 -1q-49 1 -49 54v654q0 29 -6 45l-245 773q-3 16 -3 28q0 45 42 45z" />
    <glyph glyph-name="Z" unicode="Z" horiz-adv-x="899" 
d="M554 1399q8 25 -22 25h-387q-34 2 -34 39v133q0 39 38 39h630q42 0 42 -39q0 -18 -8 -43l-434 -1251q-19 -58 26 -58h374q34 0 34 -37v-137q0 -34 -34 -34h-638q-17 0 -25 12q-12 9 -12 29q0 16 7 36z" />
    <glyph glyph-name="bracketleft" unicode="[" horiz-adv-x="569" 
 />
    <glyph glyph-name="backslash" unicode="\" horiz-adv-x="569" 
 />
    <glyph glyph-name="bracketright" unicode="]" horiz-adv-x="569" 
 />
    <glyph glyph-name="asciicircum" unicode="^" horiz-adv-x="961" 
 />
    <glyph glyph-name="underscore" unicode="_" 
 />
    <glyph glyph-name="grave" unicode="`" horiz-adv-x="682" 
 />
    <glyph glyph-name="a" unicode="a" horiz-adv-x="899" 
d="M378 1636h124q38 -20 45 -61l235 -1459q0 -72 -56 -80h-104q-52 23 -52 116q-6 130 -67 136l-100 -1q-66 -3 -75 -122l-10 -85q-10 -42 -54 -44h-109q-45 22 -45 72l228 1464q8 45 40 64zM378 636l-12 -78q-4 -78 27 -81h97q35 -2 29 82l-25 201q-8 59 -42 64
q-47 -1 -54 -61z" />
    <glyph glyph-name="b" unicode="b" horiz-adv-x="899" 
d="M159 1600h291q81 -5 112 -12q128 -45 175.5 -116t52.5 -116l-1 -332q-7 -113 -67 -172v-44q33 -41 48 -88t19 -120v-298q-7 -297 -193 -298h-436q-60 0 -60 78l1 1461q4 53 58 57zM301 1303v-290q-3 -89 41 -89h109q131 1 130 152v156q0 160 -131 160h-107q-43 0 -42 -89
zM300 648v-377q0 -69 43 -69h107q131 0 131 98v340q0 93 -130 93h-108q-41 -1 -43 -85z" />
    <glyph glyph-name="c" unicode="c" horiz-adv-x="899" 
d="M649 1306q-49 0 -49 35q0 88 -150 88q-152 0 -152 -123v-928q0 -138 152 -138q150 0 149 104q1 34 55 34h71q63 0 62 -32q1 -312 -337 -312q-348 0 -348 344v928q0 325 348 329q338 -4 338 -294q0 -35 -55 -35h-84z" />
    <glyph glyph-name="d" unicode="d" horiz-adv-x="899" 
d="M136 1596h420q183 -4 200 -196v-1200q-7 -180 -212 -196h-391q-57 0 -57 90v1422q0 80 40 80zM292 1356v-1104q0 -56 52 -56h152q84 6 84 104v992q1 102 -84 112h-144q-56 0 -60 -48z" />
    <glyph glyph-name="e" unicode="e" horiz-adv-x="899" 
d="M154 1596h568q68 -3 68 -64v-54q0 -77 -66 -78h-386q-37 0 -36 -43l1 -376q0 -45 59 -45h188q52 0 52 -68v-72q-4 -56 -52 -56h-200q-48 1 -48 -64v-423q0 -49 40 -49h381q66 -8 63 -67v-65q1 -68 -65 -68h-541q-70 1 -70 67v1473q0 52 44 52z" />
    <glyph glyph-name="f" unicode="f" horiz-adv-x="899" 
d="M154 1596h568q68 -3 68 -64v-54q0 -77 -66 -78h-386q-37 0 -36 -43l1 -376q0 -45 59 -45h188q52 0 52 -68v-72q-4 -56 -52 -56h-200q-48 1 -48 -64v-598q0 -74 -67 -74h-55q-70 1 -70 67v1473q0 52 44 52z" />
    <glyph glyph-name="g" unicode="g" horiz-adv-x="902" 
d="M775 1309q0 -36 -76 -36q-91 0 -91 36q0 160 -176 160q-149 0 -149 -160v-943q0 -137 151 -139q174 2 174 139v162q0 109 -107 109q-69 0 -69 73q0 80 69 80h204q70 0 70 -68v-356q0 -330 -342 -330q-318 0 -317 330v943q-1 332 316 332q343 0 343 -332z" />
    <glyph glyph-name="h" unicode="h" horiz-adv-x="899" 
d="M161 1600h82q67 0 67 -75v-529q-1 -60 47 -74h143q64 7 62 72v543q7 62 71 63h91q66 0 72 -75v-1456q0 -68 -66 -69h-95q-71 2 -74 55v598q0 68 -57 79h-128q-67 -7 -66 -73v-601q-2 -57 -52 -58h-108q-58 2 -60 62v1458q0 76 71 80z" />
    <glyph glyph-name="i" unicode="i" horiz-adv-x="899" 
d="M263 1641h384q55 0 55 -67v-93q0 -55 -55 -55h-56q-48 0 -48 -45v-1037q0 -95 35 -95h69q55 -1 55 -59v-100q0 -54 -55 -54h-384q-57 0 -57 54v99q0 60 57 60h51q41 0 41 42v1090q0 45 -36 45h-56q-57 0 -57 55v93q0 67 57 67z" />
    <glyph glyph-name="j" unicode="j" horiz-adv-x="899" 
d="M747 1636q29 0 29 -37v-1287q-4 -274 -320 -276h-12q-340 0 -344 308q0 56 72 56h65q65 0 65 -56q2 -112 151 -112q139 3 137 132v1235q0 37 28 37h129z" />
    <glyph glyph-name="k" unicode="k" horiz-adv-x="902" 
d="M258 1635q46 0 46 -64v-372q0 -44 28 0l201 395q16 41 44 41h156q58 0 34 -51l-252 -505q-18 -36 -3 -82l291 -904q5 -15 5 -26q0 -31 -41 -31h-118q-40 0 -59 62l-184 590q-18 51 -48 51h-20q-34 0 -34 -34v-631q6 -38 -40 -38h-108q-44 0 -44 47v1494q0 58 46 58h100z
" />
    <glyph glyph-name="l" unicode="l" horiz-adv-x="902" 
d="M168 1632h79q57 0 58 -64l-1 -1296q0 -40 48 -40h355q83 0 84 -57l-1 -67q1 -72 -82 -72h-540q-56 0 -56 52v1476q0 68 56 68z" />
    <glyph glyph-name="m" unicode="m" horiz-adv-x="899" 
d="M170 1635h69q43 -1 54 -39l121 -392q3 -19 28 -19h17q17 0 21 19l122 392q11 38 45 39h79q53 0 53 -61l1 -1484q-1 -54 -60 -54h-64q-55 0 -56 54v680q0 39 -34 39q-32 0 -62 -123q-23 -129 -41 -129h-25q-18 0 -48 128q-26 120 -64 120q-33 0 -33 -35l1 -680
q0 -54 -76 -54h-48q-59 0 -60 54v1484q0 61 60 61z" />
    <glyph glyph-name="n" unicode="n" horiz-adv-x="899" 
d="M234 1635q53 0 71 -61l213 -692q23 -64 48 -68q26 -1 25 57v703q1 61 55 61h88q45 0 45 -61v-1484q0 -54 -44 -54h-81q-56 0 -76 46l-216 736q-11 36 -32 41q-24 -2 -25 -89v-680q0 -54 -67 -54h-61q-67 0 -67 54v1484q0 61 65 61h59z" />
    <glyph glyph-name="o" unicode="o" horiz-adv-x="899" 
d="M450 1635q329 0 329 -284v-928q-1 -387 -329 -387q-340 0 -340 372v943q0 284 340 284zM293 1276v-895q0 -158 155 -159q152 1 152 159v893q0 184 -150 184q-157 0 -157 -182z" />
    <glyph glyph-name="p" unicode="p" horiz-adv-x="899" 
d="M365 796q-63 0 -63 -83v-608q0 -69 -70 -69h-58q-64 0 -64 72v1457q0 68 51 68h269q349 0 349 -285v-284q0 -268 -283 -268h-131zM302 1067q0 -91 56 -91h113q126 0 127 99v251q0 60 -40.5 91.5t-110.5 31.5h-57q-88 0 -88 -64v-318z" />
    <glyph glyph-name="q" unicode="q" horiz-adv-x="899" 
d="M451 1635q328 0 328 -337v-917q0 -83 -29 -145q-23 -43 4 -108q0 -62 -58 -92h-36q-47 30 -86 24q-78 -24 -124 -24q-340 0 -340 345v918q0 336 341 336zM293 1328v-1003q0 -132 158 -113q14 3 23 11v16l-64 84q-9 20 -4 44q27 45 66 56q23 6 66 -44q62 -51 62 23v925
q0 128 -151 129q-156 0 -156 -128z" />
    <glyph glyph-name="r" unicode="r" horiz-adv-x="899" 
d="M430 1633q356 0 356 -296v-300q0 -164 -188 -233q-9 -5 0 -34l188 -662q3 -12 3 -22q0 -50 -63 -50h-55q-58 0 -73 72l-148 625q-9 51 -45 61h-54q-60 -1 -60 -78v-608q0 -72 -65 -72h-52q-64 0 -64 72v1457q0 68 51 68h269zM291 1034q0 -91 56 -91h124q99 0 127 99v295
q0 60 -40.5 91.5t-110.5 31.5h-68q-88 0 -88 -64v-362z" />
    <glyph glyph-name="s" unicode="s" horiz-adv-x="902" 
d="M444 1635q327 0 327 -337q0 -84 -61 -84h-69q-61 0 -61 84q0 151 -138 151q-134 0 -134 -151q0 -131 63 -186l210 -249q155 -146 190 -482q0 -345 -328 -345q-340 0 -340 293q0 52 104 52q102 0 101 -38q0 -130 135 -130q138 0 138 120l-1 48q-48 291 -271 485l-122 142
q-85 97 -85 290q0 337 342 337z" />
    <glyph glyph-name="t" unicode="t" horiz-adv-x="895" 
d="M149 1632h630q34 0 34 -37v-137q0 -34 -25 -34h-187q-38 0 -37 -41l-1 -1315q0 -32 -29 -32h-140q-32 0 -32 32l-1 1315q0 41 -38 41h-182q-31 0 -30 37l-1 135q0 36 39 36z" />
    <glyph glyph-name="u" unicode="u" horiz-adv-x="899" 
d="M180 1635h47q75 0 76 -78v-1176q-1 -168 148 -168t149 168l1 1176q-1 78 57 78h64q57 0 57 -78v-1176q1 -345 -328 -345q-341 0 -341 345v1176q0 78 70 78z" />
    <glyph glyph-name="v" unicode="v" horiz-adv-x="899" 
d="M172 1635h62q70 0 75 -85l116 -652q10 -63 38.5 -66t33.5 70l107 648q9 85 70 85h80q48 0 56 -85l-253 -1403q-3 -99 -95 -108q-111 15 -110 108l-242 1403q13 85 62 85z" />
    <glyph glyph-name="w" unicode="w" horiz-adv-x="899" 
d="M177 144l-67 1403q0 85 60 85h60q48 0 56 -85l24 -473q0 -47 35 -47t43 47l30 474q6 63 42 64q33 0 35 -65l41 -473q9 -47 39.5 -47t30.5 47l21 473q1 85 65 85h62q50 0 56 -85l-60 -1403q-12 -108 -68 -108h-68q-49 0 -63 108l-48 347q-4 51 -42 57q-35 -11 -35 -55
l-38 -349q-9 -108 -74 -108h-52q-77 0 -85 108z" />
    <glyph glyph-name="x" unicode="x" horiz-adv-x="899" 
d="M156 1632h104q31 0 58 -85l98 -247q21 -68 52 -67q25 -2 48 67l98 247q28 83 46 85h106q59 0 59 -47q0 -16 -7 -38l-250 -674q-15 -41 0 -78l250 -681q10 -22 10 -38q0 -40 -62 -40h-95q-26 0 -57 78l-103 274q-13 40 -43 42q-38 -1 -50 -39l-100 -277q-30 -78 -57 -78
h-106q-45 0 -45 38q0 17 8 40l245 681q13 37 -2 78l-243 674q-7 24 -7 41q0 44 45 44z" />
    <glyph glyph-name="y" unicode="y" horiz-adv-x="898" 
d="M152 1632h91q30 0 55 -73l135 -441q34 -41 66 -2l147 443q23 72 47 73h83q42 -1 42 -50q0 -10 -2 -23l-243 -773q-7 -15 -7 -45v-652q0 -55 -50 -55l-103 -1q-49 1 -49 54v654q0 29 -6 45l-245 773q-3 16 -3 28q0 45 42 45z" />
    <glyph glyph-name="z" unicode="z" horiz-adv-x="899" 
d="M554 1399q8 25 -22 25h-387q-34 2 -34 39v133q0 39 38 39h630q42 0 42 -39q0 -18 -8 -43l-434 -1251q-19 -58 26 -58h374q34 0 34 -37v-137q0 -34 -34 -34h-638q-17 0 -25 12q-12 9 -12 29q0 16 7 36z" />
    <glyph glyph-name="braceleft" unicode="{" horiz-adv-x="684" 
 />
    <glyph glyph-name="bar" unicode="|" horiz-adv-x="532" 
 />
    <glyph glyph-name="braceright" unicode="}" horiz-adv-x="684" 
 />
    <glyph glyph-name="asciitilde" unicode="~" horiz-adv-x="1196" 
 />
    <glyph glyph-name="Adieresis" unicode="&#xc4;" horiz-adv-x="1366" 
 />
    <glyph glyph-name="Aring" unicode="&#xc5;" horiz-adv-x="1366" 
 />
    <glyph glyph-name="Ccedilla" unicode="&#xc7;" horiz-adv-x="1479" 
 />
    <glyph glyph-name="Eacute" unicode="&#xc9;" horiz-adv-x="1366" 
 />
    <glyph glyph-name="Ntilde" unicode="&#xd1;" horiz-adv-x="1479" 
 />
    <glyph glyph-name="Odieresis" unicode="&#xd6;" horiz-adv-x="1593" 
 />
    <glyph glyph-name="Udieresis" unicode="&#xdc;" horiz-adv-x="1479" 
 />
    <glyph glyph-name="aacute" unicode="&#xe1;" 
 />
    <glyph glyph-name="agrave" unicode="&#xe0;" 
 />
    <glyph glyph-name="acircumflex" unicode="&#xe2;" 
 />
    <glyph glyph-name="adieresis" unicode="&#xe4;" 
 />
    <glyph glyph-name="atilde" unicode="&#xe3;" 
 />
    <glyph glyph-name="aring" unicode="&#xe5;" 
 />
    <glyph glyph-name="ccedilla" unicode="&#xe7;" horiz-adv-x="1024" 
 />
    <glyph glyph-name="eacute" unicode="&#xe9;" 
 />
    <glyph glyph-name="egrave" unicode="&#xe8;" 
 />
    <glyph glyph-name="ecircumflex" unicode="&#xea;" 
 />
    <glyph glyph-name="edieresis" unicode="&#xeb;" 
 />
    <glyph glyph-name="iacute" unicode="&#xed;" horiz-adv-x="569" 
 />
    <glyph glyph-name="igrave" unicode="&#xec;" horiz-adv-x="569" 
 />
    <glyph glyph-name="icircumflex" unicode="&#xee;" horiz-adv-x="569" 
 />
    <glyph glyph-name="idieresis" unicode="&#xef;" horiz-adv-x="569" 
 />
    <glyph glyph-name="ntilde" unicode="&#xf1;" 
 />
    <glyph glyph-name="oacute" unicode="&#xf3;" 
 />
    <glyph glyph-name="ograve" unicode="&#xf2;" 
 />
    <glyph glyph-name="ocircumflex" unicode="&#xf4;" 
 />
    <glyph glyph-name="odieresis" unicode="&#xf6;" 
 />
    <glyph glyph-name="otilde" unicode="&#xf5;" 
 />
    <glyph glyph-name="uacute" unicode="&#xfa;" 
 />
    <glyph glyph-name="ugrave" unicode="&#xf9;" 
 />
    <glyph glyph-name="ucircumflex" unicode="&#xfb;" 
 />
    <glyph glyph-name="udieresis" unicode="&#xfc;" 
 />
    <glyph glyph-name="dagger" unicode="&#x2020;" 
 />
    <glyph glyph-name="degree" unicode="&#xb0;" horiz-adv-x="819" 
 />
    <glyph glyph-name="cent" unicode="&#xa2;" 
 />
    <glyph glyph-name="sterling" unicode="&#xa3;" 
 />
    <glyph glyph-name="section" unicode="&#xa7;" 
 />
    <glyph glyph-name="bullet" unicode="&#x2022;" horiz-adv-x="717" 
 />
    <glyph glyph-name="paragraph" unicode="&#xb6;" horiz-adv-x="1100" 
 />
    <glyph glyph-name="germandbls" unicode="&#xdf;" horiz-adv-x="1251" 
 />
    <glyph glyph-name="registered" unicode="&#xae;" horiz-adv-x="1509" 
 />
    <glyph glyph-name="copyright" unicode="&#xa9;" horiz-adv-x="1509" 
 />
    <glyph glyph-name="trademark" unicode="&#x2122;" horiz-adv-x="2048" 
 />
    <glyph glyph-name="acute" unicode="&#xb4;" horiz-adv-x="682" 
 />
    <glyph glyph-name="dieresis" unicode="&#xa8;" horiz-adv-x="682" 
 />
    <glyph glyph-name="notequal" unicode="&#x2260;" horiz-adv-x="1124" 
 />
    <glyph glyph-name="AE" unicode="&#xc6;" horiz-adv-x="2048" 
 />
    <glyph glyph-name="Oslash" unicode="&#xd8;" horiz-adv-x="1593" 
 />
    <glyph glyph-name="infinity" unicode="&#x221e;" horiz-adv-x="1460" 
 />
    <glyph glyph-name="plusminus" unicode="&#xb1;" horiz-adv-x="1124" 
 />
    <glyph glyph-name="lessequal" unicode="&#x2264;" horiz-adv-x="1124" 
 />
    <glyph glyph-name="greaterequal" unicode="&#x2265;" horiz-adv-x="1124" 
 />
    <glyph glyph-name="yen" unicode="&#xa5;" 
 />
    <glyph glyph-name="mu" unicode="&#xb5;" horiz-adv-x="1180" 
 />
    <glyph glyph-name="partialdiff" unicode="&#x2202;" horiz-adv-x="1012" 
 />
    <glyph glyph-name="summation" unicode="&#x2211;" horiz-adv-x="1460" 
 />
    <glyph glyph-name="product" unicode="&#x220f;" horiz-adv-x="1686" 
 />
    <glyph glyph-name="glyph155" horiz-adv-x="1124" 
 />
    <glyph glyph-name="integral" unicode="&#x222b;" horiz-adv-x="561" 
 />
    <glyph glyph-name="ordfeminine" unicode="&#xaa;" horiz-adv-x="758" 
 />
    <glyph glyph-name="ordmasculine" unicode="&#xba;" horiz-adv-x="748" 
 />
    <glyph glyph-name="Omega" unicode="&#x2126;" horiz-adv-x="1573" 
 />
    <glyph glyph-name="ae" unicode="&#xe6;" horiz-adv-x="1821" 
 />
    <glyph glyph-name="oslash" unicode="&#xf8;" horiz-adv-x="1251" 
 />
    <glyph glyph-name="questiondown" unicode="&#xbf;" horiz-adv-x="1251" 
 />
    <glyph glyph-name="exclamdown" unicode="&#xa1;" horiz-adv-x="682" 
 />
    <glyph glyph-name="logicalnot" unicode="&#xac;" horiz-adv-x="1196" 
 />
    <glyph glyph-name="radical" unicode="&#x221a;" horiz-adv-x="1124" 
 />
    <glyph glyph-name="florin" unicode="&#x192;" 
 />
    <glyph glyph-name="approxequal" unicode="&#x2248;" horiz-adv-x="1124" 
 />
    <glyph glyph-name="Delta" unicode="&#x2206;" horiz-adv-x="1253" 
 />
    <glyph glyph-name="guillemotleft" unicode="&#xab;" 
 />
    <glyph glyph-name="guillemotright" unicode="&#xbb;" 
 />
    <glyph glyph-name="ellipsis" unicode="&#x2026;" horiz-adv-x="2048" 
 />
    <glyph glyph-name="Agrave" unicode="&#xc0;" horiz-adv-x="1366" 
 />
    <glyph glyph-name="Atilde" unicode="&#xc3;" horiz-adv-x="1366" 
 />
    <glyph glyph-name="Otilde" unicode="&#xd5;" horiz-adv-x="1593" 
 />
    <glyph glyph-name="OE" unicode="&#x152;" horiz-adv-x="2048" 
 />
    <glyph glyph-name="oe" unicode="&#x153;" horiz-adv-x="1933" 
 />
    <glyph glyph-name="endash" unicode="&#x2013;" 
 />
    <glyph glyph-name="emdash" unicode="&#x2014;" horiz-adv-x="2048" 
 />
    <glyph glyph-name="quotedblleft" unicode="&#x201c;" horiz-adv-x="682" 
 />
    <glyph glyph-name="quotedblright" unicode="&#x201d;" horiz-adv-x="682" 
 />
    <glyph glyph-name="quoteleft" unicode="&#x2018;" horiz-adv-x="455" 
 />
    <glyph glyph-name="quoteright" unicode="&#x2019;" horiz-adv-x="455" 
 />
    <glyph glyph-name="divide" unicode="&#xf7;" horiz-adv-x="1124" 
 />
    <glyph glyph-name="lozenge" unicode="&#x25ca;" horiz-adv-x="1012" 
 />
    <glyph glyph-name="ydieresis" unicode="&#xff;" horiz-adv-x="1024" 
 />
    <glyph glyph-name="Ydieresis" unicode="&#x178;" horiz-adv-x="1366" 
 />
    <glyph glyph-name="fraction" unicode="&#x2044;" horiz-adv-x="342" 
 />
    <glyph glyph-name="fraction" unicode="&#x2215;" horiz-adv-x="342" 
 />
    <glyph glyph-name="Euro" unicode="&#x20ac;" 
 />
    <glyph glyph-name="guilsinglleft" unicode="&#x2039;" horiz-adv-x="682" 
 />
    <glyph glyph-name="guilsinglright" unicode="&#x203a;" horiz-adv-x="682" 
 />
    <glyph glyph-name="uniF001" unicode="&#xf001;" horiz-adv-x="1024" 
 />
    <glyph glyph-name="uniF001" unicode="&#xfb01;" horiz-adv-x="1024" 
 />
    <glyph glyph-name="uniF002" unicode="&#xf002;" horiz-adv-x="1024" 
 />
    <glyph glyph-name="uniF002" unicode="&#xfb02;" horiz-adv-x="1024" 
 />
    <glyph glyph-name="daggerdbl" unicode="&#x2021;" 
 />
    <glyph glyph-name="periodcentered" unicode="&#xb7;" horiz-adv-x="569" 
 />
    <glyph glyph-name="periodcentered" unicode="&#x2219;" horiz-adv-x="569" 
 />
    <glyph glyph-name="quotesinglbase" unicode="&#x201a;" horiz-adv-x="455" 
 />
    <glyph glyph-name="quotedblbase" unicode="&#x201e;" horiz-adv-x="682" 
 />
    <glyph glyph-name="perthousand" unicode="&#x2030;" horiz-adv-x="2048" 
 />
    <glyph glyph-name="Acircumflex" unicode="&#xc2;" horiz-adv-x="1366" 
 />
    <glyph glyph-name="Ecircumflex" unicode="&#xca;" horiz-adv-x="1366" 
 />
    <glyph glyph-name="Aacute" unicode="&#xc1;" horiz-adv-x="1366" 
 />
    <glyph glyph-name="Edieresis" unicode="&#xcb;" horiz-adv-x="1366" 
 />
    <glyph glyph-name="Egrave" unicode="&#xc8;" horiz-adv-x="1366" 
 />
    <glyph glyph-name="Iacute" unicode="&#xcd;" horiz-adv-x="569" 
 />
    <glyph glyph-name="Icircumflex" unicode="&#xce;" horiz-adv-x="569" 
 />
    <glyph glyph-name="Idieresis" unicode="&#xcf;" horiz-adv-x="569" 
 />
    <glyph glyph-name="Igrave" unicode="&#xcc;" horiz-adv-x="569" 
 />
    <glyph glyph-name="Oacute" unicode="&#xd3;" horiz-adv-x="1593" 
 />
    <glyph glyph-name="Ocircumflex" unicode="&#xd4;" horiz-adv-x="1593" 
 />
    <glyph glyph-name="Ograve" unicode="&#xd2;" horiz-adv-x="1593" 
 />
    <glyph glyph-name="Uacute" unicode="&#xda;" horiz-adv-x="1479" 
 />
    <glyph glyph-name="Ucircumflex" unicode="&#xdb;" horiz-adv-x="1479" 
 />
    <glyph glyph-name="Ugrave" unicode="&#xd9;" horiz-adv-x="1479" 
 />
    <glyph glyph-name="dotlessi" unicode="&#x131;" horiz-adv-x="569" 
 />
    <glyph glyph-name="circumflex" unicode="&#x2c6;" horiz-adv-x="682" 
 />
    <glyph glyph-name="tilde" unicode="&#x2dc;" horiz-adv-x="682" 
 />
    <glyph glyph-name="uni02C9" unicode="&#x2c9;" horiz-adv-x="682" 
 />
    <glyph glyph-name="breve" unicode="&#x2d8;" horiz-adv-x="682" 
 />
    <glyph glyph-name="dotaccent" unicode="&#x2d9;" horiz-adv-x="682" 
 />
    <glyph glyph-name="ring" unicode="&#x2da;" horiz-adv-x="682" 
 />
    <glyph glyph-name="cedilla" unicode="&#xb8;" horiz-adv-x="682" 
 />
    <glyph glyph-name="hungarumlaut" unicode="&#x2dd;" horiz-adv-x="682" 
 />
    <glyph glyph-name="ogonek" unicode="&#x2db;" horiz-adv-x="682" 
 />
    <glyph glyph-name="caron" unicode="&#x2c7;" horiz-adv-x="682" 
 />
    <glyph glyph-name="Lslash" unicode="&#x141;" 
 />
    <glyph glyph-name="lslash" unicode="&#x142;" horiz-adv-x="455" 
 />
    <glyph glyph-name="Scaron" unicode="&#x160;" horiz-adv-x="1366" 
 />
    <glyph glyph-name="scaron" unicode="&#x161;" horiz-adv-x="1024" 
 />
    <glyph glyph-name="Zcaron" unicode="&#x17d;" horiz-adv-x="1251" 
 />
    <glyph glyph-name="zcaron" unicode="&#x17e;" horiz-adv-x="1024" 
 />
    <glyph glyph-name="brokenbar" unicode="&#xa6;" horiz-adv-x="532" 
 />
    <glyph glyph-name="Eth" unicode="&#xd0;" horiz-adv-x="1479" 
 />
    <glyph glyph-name="eth" unicode="&#xf0;" 
 />
    <glyph glyph-name="Yacute" unicode="&#xdd;" horiz-adv-x="1366" 
 />
    <glyph glyph-name="yacute" unicode="&#xfd;" horiz-adv-x="1024" 
 />
    <glyph glyph-name="Thorn" unicode="&#xde;" horiz-adv-x="1366" 
 />
    <glyph glyph-name="thorn" unicode="&#xfe;" 
 />
    <glyph glyph-name="minus" unicode="&#x2212;" horiz-adv-x="1196" 
 />
    <glyph glyph-name="multiply" unicode="&#xd7;" horiz-adv-x="1196" 
 />
    <glyph glyph-name="uni00B9" unicode="&#xb9;" horiz-adv-x="682" 
 />
    <glyph glyph-name="uni00B2" unicode="&#xb2;" horiz-adv-x="682" 
 />
    <glyph glyph-name="uni00B3" unicode="&#xb3;" horiz-adv-x="682" 
 />
    <glyph glyph-name="onehalf" unicode="&#xbd;" horiz-adv-x="1708" 
 />
    <glyph glyph-name="onequarter" unicode="&#xbc;" horiz-adv-x="1708" 
 />
    <glyph glyph-name="threequarters" unicode="&#xbe;" horiz-adv-x="1708" 
 />
    <glyph glyph-name="franc" unicode="&#x20a3;" 
 />
    <glyph glyph-name="Gbreve" unicode="&#x11e;" horiz-adv-x="1593" 
 />
    <glyph glyph-name="gbreve" unicode="&#x11f;" 
 />
    <glyph glyph-name="Idotaccent" unicode="&#x130;" horiz-adv-x="569" 
 />
    <glyph glyph-name="Scedilla" unicode="&#x15e;" horiz-adv-x="1366" 
 />
    <glyph glyph-name="scedilla" unicode="&#x15f;" horiz-adv-x="1024" 
 />
    <glyph glyph-name="Cacute" unicode="&#x106;" horiz-adv-x="1479" 
 />
    <glyph glyph-name="cacute" unicode="&#x107;" horiz-adv-x="1024" 
 />
    <glyph glyph-name="Ccaron" unicode="&#x10c;" horiz-adv-x="1479" 
 />
    <glyph glyph-name="ccaron" unicode="&#x10d;" horiz-adv-x="1024" 
 />
    <glyph glyph-name="dcroat" unicode="&#x111;" 
 />
    <glyph glyph-name="currency" unicode="&#xa4;" 
 />
    <glyph glyph-name="macron" unicode="&#xaf;" horiz-adv-x="1131" 
 />
    <glyph glyph-name="Amacron" unicode="&#x100;" horiz-adv-x="1366" 
 />
    <glyph glyph-name="amacron" unicode="&#x101;" 
 />
    <glyph glyph-name="Abreve" unicode="&#x102;" horiz-adv-x="1366" 
 />
    <glyph glyph-name="abreve" unicode="&#x103;" 
 />
    <glyph glyph-name="Aogonek" unicode="&#x104;" horiz-adv-x="1366" 
 />
    <glyph glyph-name="aogonek" unicode="&#x105;" 
 />
    <glyph glyph-name="Ccircumflex" unicode="&#x108;" horiz-adv-x="1479" 
 />
    <glyph glyph-name="ccircumflex" unicode="&#x109;" horiz-adv-x="1024" 
 />
    <glyph glyph-name="Cdotaccent" unicode="&#x10a;" horiz-adv-x="1479" 
 />
    <glyph glyph-name="cdotaccent" unicode="&#x10b;" horiz-adv-x="1024" 
 />
    <glyph glyph-name="Dcaron" unicode="&#x10e;" horiz-adv-x="1479" 
 />
    <glyph glyph-name="dcaron" unicode="&#x10f;" horiz-adv-x="1259" 
 />
    <glyph glyph-name="Dcroat" unicode="&#x110;" horiz-adv-x="1479" 
 />
    <glyph glyph-name="Emacron" unicode="&#x112;" horiz-adv-x="1366" 
 />
    <glyph glyph-name="emacron" unicode="&#x113;" 
 />
    <glyph glyph-name="Ebreve" unicode="&#x114;" horiz-adv-x="1366" 
 />
    <glyph glyph-name="ebreve" unicode="&#x115;" 
 />
    <glyph glyph-name="Edotaccent" unicode="&#x116;" horiz-adv-x="1366" 
 />
    <glyph glyph-name="edotaccent" unicode="&#x117;" 
 />
    <glyph glyph-name="Eogonek" unicode="&#x118;" horiz-adv-x="1366" 
 />
    <glyph glyph-name="eogonek" unicode="&#x119;" 
 />
    <glyph glyph-name="Ecaron" unicode="&#x11a;" horiz-adv-x="1366" 
 />
    <glyph glyph-name="ecaron" unicode="&#x11b;" 
 />
    <glyph glyph-name="Gcircumflex" unicode="&#x11c;" horiz-adv-x="1593" 
 />
    <glyph glyph-name="gcircumflex" unicode="&#x11d;" 
 />
    <glyph glyph-name="Gdotaccent" unicode="&#x120;" horiz-adv-x="1593" 
 />
    <glyph glyph-name="gdotaccent" unicode="&#x121;" 
 />
    <glyph glyph-name="Gcommaaccent" unicode="&#x122;" horiz-adv-x="1593" 
 />
    <glyph glyph-name="gcommaaccent" unicode="&#x123;" 
 />
    <glyph glyph-name="Hcircumflex" unicode="&#x124;" horiz-adv-x="1479" 
 />
    <glyph glyph-name="hcircumflex" unicode="&#x125;" 
 />
    <glyph glyph-name="Hbar" unicode="&#x126;" horiz-adv-x="1479" 
 />
    <glyph glyph-name="hbar" unicode="&#x127;" 
 />
    <glyph glyph-name="Itilde" unicode="&#x128;" horiz-adv-x="569" 
 />
    <glyph glyph-name="itilde" unicode="&#x129;" horiz-adv-x="569" 
 />
    <glyph glyph-name="Imacron" unicode="&#x12a;" horiz-adv-x="569" 
 />
    <glyph glyph-name="imacron" unicode="&#x12b;" horiz-adv-x="569" 
 />
    <glyph glyph-name="Ibreve" unicode="&#x12c;" horiz-adv-x="569" 
 />
    <glyph glyph-name="ibreve" unicode="&#x12d;" horiz-adv-x="569" 
 />
    <glyph glyph-name="Iogonek" unicode="&#x12e;" horiz-adv-x="569" 
 />
    <glyph glyph-name="iogonek" unicode="&#x12f;" horiz-adv-x="455" 
 />
    <glyph glyph-name="IJ" unicode="&#x132;" horiz-adv-x="1505" 
 />
    <glyph glyph-name="ij" unicode="&#x133;" horiz-adv-x="909" 
 />
    <glyph glyph-name="Jcircumflex" unicode="&#x134;" horiz-adv-x="1024" 
 />
    <glyph glyph-name="jcircumflex" unicode="&#x135;" horiz-adv-x="455" 
 />
    <glyph glyph-name="Kcommaaccent" unicode="&#x136;" horiz-adv-x="1366" 
 />
    <glyph glyph-name="kcommaaccent" unicode="&#x137;" horiz-adv-x="1024" 
 />
    <glyph glyph-name="kgreenlandic" unicode="&#x138;" horiz-adv-x="1024" 
 />
    <glyph glyph-name="Lacute" unicode="&#x139;" 
 />
    <glyph glyph-name="lacute" unicode="&#x13a;" horiz-adv-x="455" 
 />
    <glyph glyph-name="Lcommaaccent" unicode="&#x13b;" 
 />
    <glyph glyph-name="lcommaaccent" unicode="&#x13c;" horiz-adv-x="455" 
 />
    <glyph glyph-name="Lcaron" unicode="&#x13d;" 
 />
    <glyph glyph-name="lcaron" unicode="&#x13e;" horiz-adv-x="597" 
 />
    <glyph glyph-name="Ldot" unicode="&#x13f;" 
 />
    <glyph glyph-name="ldot" unicode="&#x140;" horiz-adv-x="684" 
 />
    <glyph glyph-name="Nacute" unicode="&#x143;" horiz-adv-x="1479" 
 />
    <glyph glyph-name="nacute" unicode="&#x144;" 
 />
    <glyph glyph-name="Ncommaaccent" unicode="&#x145;" horiz-adv-x="1479" 
 />
    <glyph glyph-name="ncommaaccent" unicode="&#x146;" 
 />
    <glyph glyph-name="Ncaron" unicode="&#x147;" horiz-adv-x="1479" 
 />
    <glyph glyph-name="ncaron" unicode="&#x148;" 
 />
    <glyph glyph-name="napostrophe" unicode="&#x149;" horiz-adv-x="1237" 
 />
    <glyph glyph-name="Eng" unicode="&#x14a;" horiz-adv-x="1481" 
 />
    <glyph glyph-name="eng" unicode="&#x14b;" 
 />
    <glyph glyph-name="Omacron" unicode="&#x14c;" horiz-adv-x="1593" 
 />
    <glyph glyph-name="omacron" unicode="&#x14d;" 
 />
    <glyph glyph-name="Obreve" unicode="&#x14e;" horiz-adv-x="1593" 
 />
    <glyph glyph-name="obreve" unicode="&#x14f;" 
 />
    <glyph glyph-name="Ohungarumlaut" unicode="&#x150;" horiz-adv-x="1593" 
 />
    <glyph glyph-name="ohungarumlaut" unicode="&#x151;" 
 />
    <glyph glyph-name="Racute" unicode="&#x154;" horiz-adv-x="1479" 
 />
    <glyph glyph-name="racute" unicode="&#x155;" horiz-adv-x="682" 
 />
    <glyph glyph-name="Rcommaaccent" unicode="&#x156;" horiz-adv-x="1479" 
 />
    <glyph glyph-name="rcommaaccent" unicode="&#x157;" horiz-adv-x="682" 
 />
    <glyph glyph-name="Rcaron" unicode="&#x158;" horiz-adv-x="1479" 
 />
    <glyph glyph-name="rcaron" unicode="&#x159;" horiz-adv-x="682" 
 />
    <glyph glyph-name="Sacute" unicode="&#x15a;" horiz-adv-x="1366" 
 />
    <glyph glyph-name="sacute" unicode="&#x15b;" horiz-adv-x="1024" 
 />
    <glyph glyph-name="Scircumflex" unicode="&#x15c;" horiz-adv-x="1366" 
 />
    <glyph glyph-name="scircumflex" unicode="&#x15d;" horiz-adv-x="1024" 
 />
    <glyph glyph-name="Tcommaaccent" unicode="&#x162;" horiz-adv-x="1251" 
 />
    <glyph glyph-name="tcommaaccent" unicode="&#x163;" horiz-adv-x="569" 
 />
    <glyph glyph-name="Tcaron" unicode="&#x164;" horiz-adv-x="1251" 
 />
    <glyph glyph-name="tcaron" unicode="&#x165;" horiz-adv-x="768" 
 />
    <glyph glyph-name="Tbar" unicode="&#x166;" horiz-adv-x="1251" 
 />
    <glyph glyph-name="tbar" unicode="&#x167;" horiz-adv-x="569" 
 />
    <glyph glyph-name="Utilde" unicode="&#x168;" horiz-adv-x="1479" 
 />
    <glyph glyph-name="utilde" unicode="&#x169;" 
 />
    <glyph glyph-name="Umacron" unicode="&#x16a;" horiz-adv-x="1479" 
 />
    <glyph glyph-name="umacron" unicode="&#x16b;" 
 />
    <glyph glyph-name="Ubreve" unicode="&#x16c;" horiz-adv-x="1479" 
 />
    <glyph glyph-name="ubreve" unicode="&#x16d;" 
 />
    <glyph glyph-name="Uring" unicode="&#x16e;" horiz-adv-x="1479" 
 />
    <glyph glyph-name="uring" unicode="&#x16f;" 
 />
    <glyph glyph-name="Uhungarumlaut" unicode="&#x170;" horiz-adv-x="1479" 
 />
    <glyph glyph-name="uhungarumlaut" unicode="&#x171;" 
 />
    <glyph glyph-name="Uogonek" unicode="&#x172;" horiz-adv-x="1479" 
 />
    <glyph glyph-name="uogonek" unicode="&#x173;" 
 />
    <glyph glyph-name="Wcircumflex" unicode="&#x174;" horiz-adv-x="1933" 
 />
    <glyph glyph-name="wcircumflex" unicode="&#x175;" horiz-adv-x="1479" 
 />
    <glyph glyph-name="Ycircumflex" unicode="&#x176;" horiz-adv-x="1366" 
 />
    <glyph glyph-name="ycircumflex" unicode="&#x177;" horiz-adv-x="1024" 
 />
    <glyph glyph-name="Zacute" unicode="&#x179;" horiz-adv-x="1251" 
 />
    <glyph glyph-name="zacute" unicode="&#x17a;" horiz-adv-x="1024" 
 />
    <glyph glyph-name="Zdotaccent" unicode="&#x17b;" horiz-adv-x="1251" 
 />
    <glyph glyph-name="zdotaccent" unicode="&#x17c;" horiz-adv-x="1024" 
 />
    <glyph glyph-name="longs" unicode="&#x17f;" horiz-adv-x="455" 
 />
    <glyph glyph-name="Aringacute" unicode="&#x1fa;" horiz-adv-x="1366" 
 />
    <glyph glyph-name="aringacute" unicode="&#x1fb;" 
 />
    <glyph glyph-name="AEacute" unicode="&#x1fc;" horiz-adv-x="2048" 
 />
    <glyph glyph-name="aeacute" unicode="&#x1fd;" horiz-adv-x="1821" 
 />
    <glyph glyph-name="Oslashacute" unicode="&#x1fe;" horiz-adv-x="1593" 
 />
    <glyph glyph-name="oslashacute" unicode="&#x1ff;" horiz-adv-x="1251" 
 />
    <glyph glyph-name="tonos" unicode="&#x384;" horiz-adv-x="682" 
 />
    <glyph glyph-name="dieresistonos" unicode="&#x385;" horiz-adv-x="682" 
 />
    <glyph glyph-name="Alphatonos" unicode="&#x386;" horiz-adv-x="1367" 
 />
    <glyph glyph-name="anoteleia" unicode="&#x387;" horiz-adv-x="569" 
 />
    <glyph glyph-name="Epsilontonos" unicode="&#x388;" horiz-adv-x="1606" 
 />
    <glyph glyph-name="Etatonos" unicode="&#x389;" horiz-adv-x="1716" 
 />
    <glyph glyph-name="Iotatonos" unicode="&#x38a;" horiz-adv-x="786" 
 />
    <glyph glyph-name="Omicrontonos" unicode="&#x38c;" horiz-adv-x="1586" 
 />
    <glyph glyph-name="Upsilontonos" unicode="&#x38e;" horiz-adv-x="1752" 
 />
    <glyph glyph-name="Omegatonos" unicode="&#x38f;" horiz-adv-x="1541" 
 />
    <glyph glyph-name="iotadieresistonos" unicode="&#x390;" horiz-adv-x="455" 
 />
    <glyph glyph-name="Alpha" unicode="&#x391;" horiz-adv-x="1366" 
 />
    <glyph glyph-name="Beta" unicode="&#x392;" horiz-adv-x="1366" 
 />
    <glyph glyph-name="Gamma" unicode="&#x393;" horiz-adv-x="1128" 
 />
    <glyph glyph-name="uni0394" unicode="&#x394;" horiz-adv-x="1368" 
 />
    <glyph glyph-name="Epsilon" unicode="&#x395;" horiz-adv-x="1366" 
 />
    <glyph glyph-name="Zeta" unicode="&#x396;" horiz-adv-x="1251" 
 />
    <glyph glyph-name="Eta" unicode="&#x397;" horiz-adv-x="1479" 
 />
    <glyph glyph-name="Theta" unicode="&#x398;" horiz-adv-x="1593" 
 />
    <glyph glyph-name="Iota" unicode="&#x399;" horiz-adv-x="569" 
 />
    <glyph glyph-name="Kappa" unicode="&#x39a;" horiz-adv-x="1366" 
 />
    <glyph glyph-name="Lambda" unicode="&#x39b;" horiz-adv-x="1368" 
 />
    <glyph glyph-name="Mu" unicode="&#x39c;" horiz-adv-x="1706" 
 />
    <glyph glyph-name="Nu" unicode="&#x39d;" horiz-adv-x="1479" 
 />
    <glyph glyph-name="Xi" unicode="&#x39e;" horiz-adv-x="1331" 
 />
    <glyph glyph-name="Omicron" unicode="&#x39f;" horiz-adv-x="1593" 
 />
    <glyph glyph-name="Pi" unicode="&#x3a0;" horiz-adv-x="1479" 
 />
    <glyph glyph-name="Rho" unicode="&#x3a1;" horiz-adv-x="1366" 
 />
    <glyph glyph-name="Sigma" unicode="&#x3a3;" horiz-adv-x="1266" 
 />
    <glyph glyph-name="Tau" unicode="&#x3a4;" horiz-adv-x="1251" 
 />
    <glyph glyph-name="Upsilon" unicode="&#x3a5;" horiz-adv-x="1366" 
 />
    <glyph glyph-name="Phi" unicode="&#x3a6;" horiz-adv-x="1634" 
 />
    <glyph glyph-name="Chi" unicode="&#x3a7;" horiz-adv-x="1366" 
 />
    <glyph glyph-name="Psi" unicode="&#x3a8;" horiz-adv-x="1711" 
 />
    <glyph glyph-name="uni03A9" unicode="&#x3a9;" horiz-adv-x="1531" 
 />
    <glyph glyph-name="Iotadieresis" unicode="&#x3aa;" horiz-adv-x="569" 
 />
    <glyph glyph-name="Upsilondieresis" unicode="&#x3ab;" horiz-adv-x="1366" 
 />
    <glyph glyph-name="alphatonos" unicode="&#x3ac;" horiz-adv-x="1184" 
 />
    <glyph glyph-name="epsilontonos" unicode="&#x3ad;" horiz-adv-x="913" 
 />
    <glyph glyph-name="etatonos" unicode="&#x3ae;" 
 />
    <glyph glyph-name="iotatonos" unicode="&#x3af;" horiz-adv-x="455" 
 />
    <glyph glyph-name="upsilondieresistonos" unicode="&#x3b0;" horiz-adv-x="1120" 
 />
    <glyph glyph-name="alpha" unicode="&#x3b1;" horiz-adv-x="1184" 
 />
    <glyph glyph-name="beta" unicode="&#x3b2;" horiz-adv-x="1178" 
 />
    <glyph glyph-name="gamma" unicode="&#x3b3;" horiz-adv-x="1024" 
 />
    <glyph glyph-name="delta" unicode="&#x3b4;" horiz-adv-x="1140" 
 />
    <glyph glyph-name="epsilon" unicode="&#x3b5;" horiz-adv-x="913" 
 />
    <glyph glyph-name="zeta" unicode="&#x3b6;" horiz-adv-x="903" 
 />
    <glyph glyph-name="eta" unicode="&#x3b7;" 
 />
    <glyph glyph-name="theta" unicode="&#x3b8;" 
 />
    <glyph glyph-name="iota" unicode="&#x3b9;" horiz-adv-x="455" 
 />
    <glyph glyph-name="kappa" unicode="&#x3ba;" horiz-adv-x="1024" 
 />
    <glyph glyph-name="lambda" unicode="&#x3bb;" horiz-adv-x="1024" 
 />
    <glyph glyph-name="uni03BC" unicode="&#x3bc;" horiz-adv-x="1180" 
 />
    <glyph glyph-name="nu" unicode="&#x3bd;" horiz-adv-x="1024" 
 />
    <glyph glyph-name="xi" unicode="&#x3be;" horiz-adv-x="917" 
 />
    <glyph glyph-name="omicron" unicode="&#x3bf;" 
 />
    <glyph glyph-name="pi" unicode="&#x3c0;" horiz-adv-x="1413" 
 />
    <glyph glyph-name="rho" unicode="&#x3c1;" horiz-adv-x="1165" 
 />
    <glyph glyph-name="sigma1" unicode="&#x3c2;" horiz-adv-x="987" 
 />
    <glyph glyph-name="sigma" unicode="&#x3c3;" horiz-adv-x="1264" 
 />
    <glyph glyph-name="tau" unicode="&#x3c4;" horiz-adv-x="809" 
 />
    <glyph glyph-name="upsilon" unicode="&#x3c5;" horiz-adv-x="1120" 
 />
    <glyph glyph-name="phi" unicode="&#x3c6;" horiz-adv-x="1328" 
 />
    <glyph glyph-name="chi" unicode="&#x3c7;" horiz-adv-x="1075" 
 />
    <glyph glyph-name="psi" unicode="&#x3c8;" horiz-adv-x="1460" 
 />
    <glyph glyph-name="omega" unicode="&#x3c9;" horiz-adv-x="1599" 
 />
    <glyph glyph-name="iotadieresis" unicode="&#x3ca;" horiz-adv-x="455" 
 />
    <glyph glyph-name="upsilondieresis" unicode="&#x3cb;" horiz-adv-x="1120" 
 />
    <glyph glyph-name="omicrontonos" unicode="&#x3cc;" 
 />
    <glyph glyph-name="upsilontonos" unicode="&#x3cd;" horiz-adv-x="1120" 
 />
    <glyph glyph-name="omegatonos" unicode="&#x3ce;" horiz-adv-x="1599" 
 />
    <glyph glyph-name="afii10023" unicode="&#x401;" horiz-adv-x="1367" 
 />
    <glyph glyph-name="afii10051" unicode="&#x402;" horiz-adv-x="1771" 
 />
    <glyph glyph-name="afii10052" unicode="&#x403;" horiz-adv-x="1109" 
 />
    <glyph glyph-name="afii10053" unicode="&#x404;" horiz-adv-x="1472" 
 />
    <glyph glyph-name="afii10054" unicode="&#x405;" horiz-adv-x="1366" 
 />
    <glyph glyph-name="afii10055" unicode="&#x406;" horiz-adv-x="569" 
 />
    <glyph glyph-name="afii10056" unicode="&#x407;" horiz-adv-x="569" 
 />
    <glyph glyph-name="afii10057" unicode="&#x408;" horiz-adv-x="1024" 
 />
    <glyph glyph-name="afii10058" unicode="&#x409;" horiz-adv-x="2165" 
 />
    <glyph glyph-name="afii10059" unicode="&#x40a;" horiz-adv-x="2069" 
 />
    <glyph glyph-name="afii10060" unicode="&#x40b;" horiz-adv-x="1749" 
 />
    <glyph glyph-name="afii10061" unicode="&#x40c;" horiz-adv-x="1193" 
 />
    <glyph glyph-name="afii10062" unicode="&#x40e;" horiz-adv-x="1301" 
 />
    <glyph glyph-name="afii10145" unicode="&#x40f;" horiz-adv-x="1472" 
 />
    <glyph glyph-name="afii10017" unicode="&#x410;" horiz-adv-x="1366" 
 />
    <glyph glyph-name="afii10018" unicode="&#x411;" horiz-adv-x="1344" 
 />
    <glyph glyph-name="afii10019" unicode="&#x412;" horiz-adv-x="1366" 
 />
    <glyph glyph-name="afii10020" unicode="&#x413;" horiz-adv-x="1109" 
 />
    <glyph glyph-name="afii10021" unicode="&#x414;" horiz-adv-x="1387" 
 />
    <glyph glyph-name="afii10022" unicode="&#x415;" horiz-adv-x="1366" 
 />
    <glyph glyph-name="afii10024" unicode="&#x416;" horiz-adv-x="1891" 
 />
    <glyph glyph-name="afii10025" unicode="&#x417;" horiz-adv-x="1237" 
 />
    <glyph glyph-name="afii10026" unicode="&#x418;" horiz-adv-x="1472" 
 />
    <glyph glyph-name="afii10027" unicode="&#x419;" horiz-adv-x="1472" 
 />
    <glyph glyph-name="afii10028" unicode="&#x41a;" horiz-adv-x="1193" 
 />
    <glyph glyph-name="afii10029" unicode="&#x41b;" horiz-adv-x="1344" 
 />
    <glyph glyph-name="afii10030" unicode="&#x41c;" horiz-adv-x="1706" 
 />
    <glyph glyph-name="afii10031" unicode="&#x41d;" horiz-adv-x="1479" 
 />
    <glyph glyph-name="afii10032" unicode="&#x41e;" horiz-adv-x="1593" 
 />
    <glyph glyph-name="afii10033" unicode="&#x41f;" horiz-adv-x="1472" 
 />
    <glyph glyph-name="afii10034" unicode="&#x420;" horiz-adv-x="1366" 
 />
    <glyph glyph-name="afii10035" unicode="&#x421;" horiz-adv-x="1479" 
 />
    <glyph glyph-name="afii10036" unicode="&#x422;" horiz-adv-x="1251" 
 />
    <glyph glyph-name="afii10037" unicode="&#x423;" horiz-adv-x="1301" 
 />
    <glyph glyph-name="afii10038" unicode="&#x424;" horiz-adv-x="1557" 
 />
    <glyph glyph-name="afii10039" unicode="&#x425;" horiz-adv-x="1366" 
 />
    <glyph glyph-name="afii10040" unicode="&#x426;" horiz-adv-x="1515" 
 />
    <glyph glyph-name="afii10041" unicode="&#x427;" horiz-adv-x="1365" 
 />
    <glyph glyph-name="afii10042" unicode="&#x428;" horiz-adv-x="1877" 
 />
    <glyph glyph-name="afii10043" unicode="&#x429;" horiz-adv-x="1920" 
 />
    <glyph glyph-name="afii10044" unicode="&#x42a;" horiz-adv-x="1621" 
 />
    <glyph glyph-name="afii10045" unicode="&#x42b;" horiz-adv-x="1813" 
 />
    <glyph glyph-name="afii10046" unicode="&#x42c;" horiz-adv-x="1344" 
 />
    <glyph glyph-name="afii10047" unicode="&#x42d;" horiz-adv-x="1472" 
 />
    <glyph glyph-name="afii10048" unicode="&#x42e;" horiz-adv-x="2069" 
 />
    <glyph glyph-name="afii10049" unicode="&#x42f;" horiz-adv-x="1479" 
 />
    <glyph glyph-name="afii10065" unicode="&#x430;" 
 />
    <glyph glyph-name="afii10066" unicode="&#x431;" horiz-adv-x="1173" 
 />
    <glyph glyph-name="afii10067" unicode="&#x432;" horiz-adv-x="1088" 
 />
    <glyph glyph-name="afii10068" unicode="&#x433;" horiz-adv-x="747" 
 />
    <glyph glyph-name="afii10069" unicode="&#x434;" horiz-adv-x="1195" 
 />
    <glyph glyph-name="afii10070" unicode="&#x435;" 
 />
    <glyph glyph-name="afii10072" unicode="&#x436;" horiz-adv-x="1370" 
 />
    <glyph glyph-name="afii10073" unicode="&#x437;" horiz-adv-x="939" 
 />
    <glyph glyph-name="afii10074" unicode="&#x438;" horiz-adv-x="1144" 
 />
    <glyph glyph-name="afii10075" unicode="&#x439;" horiz-adv-x="1144" 
 />
    <glyph glyph-name="afii10076" unicode="&#x43a;" horiz-adv-x="896" 
 />
    <glyph glyph-name="afii10077" unicode="&#x43b;" horiz-adv-x="1195" 
 />
    <glyph glyph-name="afii10078" unicode="&#x43c;" horiz-adv-x="1408" 
 />
    <glyph glyph-name="afii10079" unicode="&#x43d;" horiz-adv-x="1131" 
 />
    <glyph glyph-name="afii10080" unicode="&#x43e;" 
 />
    <glyph glyph-name="afii10081" unicode="&#x43f;" horiz-adv-x="1109" 
 />
    <glyph glyph-name="afii10082" unicode="&#x440;" 
 />
    <glyph glyph-name="afii10083" unicode="&#x441;" horiz-adv-x="1024" 
 />
    <glyph glyph-name="afii10084" unicode="&#x442;" horiz-adv-x="938" 
 />
    <glyph glyph-name="afii10085" unicode="&#x443;" horiz-adv-x="1024" 
 />
    <glyph glyph-name="afii10086" unicode="&#x444;" horiz-adv-x="1685" 
 />
    <glyph glyph-name="afii10087" unicode="&#x445;" horiz-adv-x="1024" 
 />
    <glyph glyph-name="afii10088" unicode="&#x446;" horiz-adv-x="1173" 
 />
    <glyph glyph-name="afii10089" unicode="&#x447;" horiz-adv-x="1067" 
 />
    <glyph glyph-name="afii10090" unicode="&#x448;" horiz-adv-x="1643" 
 />
    <glyph glyph-name="afii10091" unicode="&#x449;" horiz-adv-x="1685" 
 />
    <glyph glyph-name="afii10092" unicode="&#x44a;" horiz-adv-x="1280" 
 />
    <glyph glyph-name="afii10093" unicode="&#x44b;" horiz-adv-x="1472" 
 />
    <glyph glyph-name="afii10094" unicode="&#x44c;" horiz-adv-x="1067" 
 />
    <glyph glyph-name="afii10095" unicode="&#x44d;" horiz-adv-x="1045" 
 />
    <glyph glyph-name="afii10096" unicode="&#x44e;" horiz-adv-x="1536" 
 />
    <glyph glyph-name="afii10097" unicode="&#x44f;" horiz-adv-x="1109" 
 />
    <glyph glyph-name="afii10071" unicode="&#x451;" 
 />
    <glyph glyph-name="afii10099" unicode="&#x452;" 
 />
    <glyph glyph-name="afii10100" unicode="&#x453;" horiz-adv-x="747" 
 />
    <glyph glyph-name="afii10101" unicode="&#x454;" horiz-adv-x="1045" 
 />
    <glyph glyph-name="afii10102" unicode="&#x455;" horiz-adv-x="1024" 
 />
    <glyph glyph-name="afii10103" unicode="&#x456;" horiz-adv-x="455" 
 />
    <glyph glyph-name="afii10104" unicode="&#x457;" horiz-adv-x="569" 
 />
    <glyph glyph-name="afii10105" unicode="&#x458;" horiz-adv-x="455" 
 />
    <glyph glyph-name="afii10106" unicode="&#x459;" horiz-adv-x="1856" 
 />
    <glyph glyph-name="afii10107" unicode="&#x45a;" horiz-adv-x="1664" 
 />
    <glyph glyph-name="afii10108" unicode="&#x45b;" 
 />
    <glyph glyph-name="afii10109" unicode="&#x45c;" horiz-adv-x="896" 
 />
    <glyph glyph-name="afii10110" unicode="&#x45e;" horiz-adv-x="1024" 
 />
    <glyph glyph-name="afii10193" unicode="&#x45f;" horiz-adv-x="1131" 
 />
    <glyph glyph-name="afii10050" unicode="&#x490;" horiz-adv-x="1001" 
 />
    <glyph glyph-name="afii10098" unicode="&#x491;" horiz-adv-x="842" 
 />
    <glyph glyph-name="Wgrave" unicode="&#x1e80;" horiz-adv-x="1933" 
 />
    <glyph glyph-name="wgrave" unicode="&#x1e81;" horiz-adv-x="1479" 
 />
    <glyph glyph-name="Wacute" unicode="&#x1e82;" horiz-adv-x="1933" 
 />
    <glyph glyph-name="wacute" unicode="&#x1e83;" horiz-adv-x="1479" 
 />
    <glyph glyph-name="Wdieresis" unicode="&#x1e84;" horiz-adv-x="1933" 
 />
    <glyph glyph-name="wdieresis" unicode="&#x1e85;" horiz-adv-x="1479" 
 />
    <glyph glyph-name="Ygrave" unicode="&#x1ef2;" horiz-adv-x="1366" 
 />
    <glyph glyph-name="ygrave" unicode="&#x1ef3;" horiz-adv-x="1024" 
 />
    <glyph glyph-name="afii00208" unicode="&#x2015;" horiz-adv-x="2048" 
 />
    <glyph glyph-name="underscoredbl" unicode="&#x2017;" horiz-adv-x="1131" 
 />
    <glyph glyph-name="quotereversed" unicode="&#x201b;" horiz-adv-x="455" 
 />
    <glyph glyph-name="minute" unicode="&#x2032;" horiz-adv-x="384" 
 />
    <glyph glyph-name="second" unicode="&#x2033;" horiz-adv-x="725" 
 />
    <glyph glyph-name="exclamdbl" unicode="&#x203c;" horiz-adv-x="1024" 
 />
    <glyph glyph-name="uni203E" unicode="&#x203e;" horiz-adv-x="682" 
 />
    <glyph glyph-name="uni207F" unicode="&#x207f;" horiz-adv-x="747" 
 />
    <glyph glyph-name="lira" unicode="&#x20a4;" 
 />
    <glyph glyph-name="peseta" unicode="&#x20a7;" horiz-adv-x="2240" 
 />
    <glyph glyph-name="afii61248" unicode="&#x2105;" horiz-adv-x="1813" 
 />
    <glyph glyph-name="afii61289" unicode="&#x2113;" horiz-adv-x="662" 
 />
    <glyph glyph-name="afii61352" unicode="&#x2116;" horiz-adv-x="2197" 
 />
    <glyph glyph-name="estimated" unicode="&#x212e;" horiz-adv-x="1229" 
 />
    <glyph glyph-name="oneeighth" unicode="&#x215b;" horiz-adv-x="1708" 
 />
    <glyph glyph-name="threeeighths" unicode="&#x215c;" horiz-adv-x="1708" 
 />
    <glyph glyph-name="fiveeighths" unicode="&#x215d;" horiz-adv-x="1708" 
 />
    <glyph glyph-name="seveneighths" unicode="&#x215e;" horiz-adv-x="1708" 
 />
    <glyph glyph-name="arrowleft" unicode="&#x2190;" horiz-adv-x="2048" 
 />
    <glyph glyph-name="arrowup" unicode="&#x2191;" horiz-adv-x="1024" 
 />
    <glyph glyph-name="arrowright" unicode="&#x2192;" horiz-adv-x="2048" 
 />
    <glyph glyph-name="arrowdown" unicode="&#x2193;" horiz-adv-x="1024" 
 />
    <glyph glyph-name="arrowboth" unicode="&#x2194;" horiz-adv-x="2048" 
 />
    <glyph glyph-name="arrowupdn" unicode="&#x2195;" horiz-adv-x="1024" 
 />
    <glyph glyph-name="arrowupdnbse" unicode="&#x21a8;" horiz-adv-x="1024" 
 />
    <glyph glyph-name="orthogonal" unicode="&#x221f;" horiz-adv-x="2005" 
 />
    <glyph glyph-name="intersection" unicode="&#x2229;" horiz-adv-x="1472" 
 />
    <glyph glyph-name="equivalence" unicode="&#x2261;" horiz-adv-x="1195" 
 />
    <glyph glyph-name="house" unicode="&#x2302;" horiz-adv-x="1237" 
 />
    <glyph glyph-name="revlogicalnot" unicode="&#x2310;" horiz-adv-x="1196" 
 />
    <glyph glyph-name="integraltp" unicode="&#x2320;" horiz-adv-x="1237" 
 />
    <glyph glyph-name="integralbt" unicode="&#x2321;" horiz-adv-x="1237" 
 />
    <glyph glyph-name="SF100000" unicode="&#x2500;" horiz-adv-x="1451" 
 />
    <glyph glyph-name="SF110000" unicode="&#x2502;" horiz-adv-x="1280" 
 />
    <glyph glyph-name="SF010000" unicode="&#x250c;" horiz-adv-x="1451" 
 />
    <glyph glyph-name="SF030000" unicode="&#x2510;" horiz-adv-x="1451" 
 />
    <glyph glyph-name="SF020000" unicode="&#x2514;" horiz-adv-x="1451" 
 />
    <glyph glyph-name="SF040000" unicode="&#x2518;" horiz-adv-x="1451" 
 />
    <glyph glyph-name="SF080000" unicode="&#x251c;" horiz-adv-x="1451" 
 />
    <glyph glyph-name="SF090000" unicode="&#x2524;" horiz-adv-x="1451" 
 />
    <glyph glyph-name="SF060000" unicode="&#x252c;" horiz-adv-x="1451" 
 />
    <glyph glyph-name="SF070000" unicode="&#x2534;" horiz-adv-x="1451" 
 />
    <glyph glyph-name="SF050000" unicode="&#x253c;" horiz-adv-x="1451" 
 />
    <glyph glyph-name="SF430000" unicode="&#x2550;" horiz-adv-x="1451" 
 />
    <glyph glyph-name="SF240000" unicode="&#x2551;" horiz-adv-x="1451" 
 />
    <glyph glyph-name="SF510000" unicode="&#x2552;" horiz-adv-x="1451" 
 />
    <glyph glyph-name="SF520000" unicode="&#x2553;" horiz-adv-x="1451" 
 />
    <glyph glyph-name="SF390000" unicode="&#x2554;" horiz-adv-x="1451" 
 />
    <glyph glyph-name="SF220000" unicode="&#x2555;" horiz-adv-x="1451" 
 />
    <glyph glyph-name="SF210000" unicode="&#x2556;" horiz-adv-x="1451" 
 />
    <glyph glyph-name="SF250000" unicode="&#x2557;" horiz-adv-x="1451" 
 />
    <glyph glyph-name="SF500000" unicode="&#x2558;" horiz-adv-x="1451" 
 />
    <glyph glyph-name="SF490000" unicode="&#x2559;" horiz-adv-x="1451" 
 />
    <glyph glyph-name="SF380000" unicode="&#x255a;" horiz-adv-x="1451" 
 />
    <glyph glyph-name="SF280000" unicode="&#x255b;" horiz-adv-x="1451" 
 />
    <glyph glyph-name="SF270000" unicode="&#x255c;" horiz-adv-x="1451" 
 />
    <glyph glyph-name="SF260000" unicode="&#x255d;" horiz-adv-x="1451" 
 />
    <glyph glyph-name="SF360000" unicode="&#x255e;" horiz-adv-x="1451" 
 />
    <glyph glyph-name="SF370000" unicode="&#x255f;" horiz-adv-x="1451" 
 />
    <glyph glyph-name="SF420000" unicode="&#x2560;" horiz-adv-x="1451" 
 />
    <glyph glyph-name="SF190000" unicode="&#x2561;" horiz-adv-x="1451" 
 />
    <glyph glyph-name="SF200000" unicode="&#x2562;" horiz-adv-x="1451" 
 />
    <glyph glyph-name="SF230000" unicode="&#x2563;" horiz-adv-x="1451" 
 />
    <glyph glyph-name="SF470000" unicode="&#x2564;" horiz-adv-x="1451" 
 />
    <glyph glyph-name="SF480000" unicode="&#x2565;" horiz-adv-x="1451" 
 />
    <glyph glyph-name="SF410000" unicode="&#x2566;" horiz-adv-x="1451" 
 />
    <glyph glyph-name="SF450000" unicode="&#x2567;" horiz-adv-x="1451" 
 />
    <glyph glyph-name="SF460000" unicode="&#x2568;" horiz-adv-x="1451" 
 />
    <glyph glyph-name="SF400000" unicode="&#x2569;" horiz-adv-x="1451" 
 />
    <glyph glyph-name="SF540000" unicode="&#x256a;" horiz-adv-x="1451" 
 />
    <glyph glyph-name="SF530000" unicode="&#x256b;" horiz-adv-x="1451" 
 />
    <glyph glyph-name="SF440000" unicode="&#x256c;" horiz-adv-x="1451" 
 />
    <glyph glyph-name="upblock" unicode="&#x2580;" horiz-adv-x="1451" 
 />
    <glyph glyph-name="dnblock" unicode="&#x2584;" horiz-adv-x="1451" 
 />
    <glyph glyph-name="block" unicode="&#x2588;" horiz-adv-x="1451" 
 />
    <glyph glyph-name="lfblock" unicode="&#x258c;" horiz-adv-x="1451" 
 />
    <glyph glyph-name="rtblock" unicode="&#x2590;" horiz-adv-x="1451" 
 />
    <glyph glyph-name="ltshade" unicode="&#x2591;" horiz-adv-x="1451" 
 />
    <glyph glyph-name="shade" unicode="&#x2592;" horiz-adv-x="1451" 
 />
    <glyph glyph-name="dkshade" unicode="&#x2593;" horiz-adv-x="1493" 
 />
    <glyph glyph-name="filledbox" unicode="&#x25a0;" horiz-adv-x="1237" 
 />
    <glyph glyph-name="H22073" unicode="&#x25a1;" horiz-adv-x="1237" 
 />
    <glyph glyph-name="H18543" unicode="&#x25aa;" horiz-adv-x="726" 
 />
    <glyph glyph-name="H18551" unicode="&#x25ab;" horiz-adv-x="726" 
 />
    <glyph glyph-name="filledrect" unicode="&#x25ac;" horiz-adv-x="2048" 
 />
    <glyph glyph-name="triagup" unicode="&#x25b2;" horiz-adv-x="2027" 
 />
    <glyph glyph-name="triagrt" unicode="&#x25ba;" horiz-adv-x="2027" 
 />
    <glyph glyph-name="triagdn" unicode="&#x25bc;" horiz-adv-x="2027" 
 />
    <glyph glyph-name="triaglf" unicode="&#x25c4;" horiz-adv-x="2027" 
 />
    <glyph glyph-name="circle" unicode="&#x25cb;" horiz-adv-x="1237" 
 />
    <glyph glyph-name="H18533" unicode="&#x25cf;" horiz-adv-x="1237" 
 />
    <glyph glyph-name="invbullet" unicode="&#x25d8;" horiz-adv-x="1237" 
 />
    <glyph glyph-name="invcircle" unicode="&#x25d9;" horiz-adv-x="1237" 
 />
    <glyph glyph-name="openbullet" unicode="&#x25e6;" horiz-adv-x="726" 
 />
    <glyph glyph-name="smileface" unicode="&#x263a;" horiz-adv-x="2091" 
 />
    <glyph glyph-name="invsmileface" unicode="&#x263b;" horiz-adv-x="2155" 
 />
    <glyph glyph-name="sun" unicode="&#x263c;" horiz-adv-x="1877" 
 />
    <glyph glyph-name="female" unicode="&#x2640;" horiz-adv-x="1536" 
 />
    <glyph glyph-name="male" unicode="&#x2642;" horiz-adv-x="1536" 
 />
    <glyph glyph-name="spade" unicode="&#x2660;" horiz-adv-x="1088" 
 />
    <glyph glyph-name="club" unicode="&#x2663;" horiz-adv-x="1344" 
 />
    <glyph glyph-name="heart" unicode="&#x2665;" horiz-adv-x="1216" 
 />
    <glyph glyph-name="diamond" unicode="&#x2666;" horiz-adv-x="1045" 
 />
    <glyph glyph-name="musicalnote" unicode="&#x266a;" horiz-adv-x="1024" 
 />
    <glyph glyph-name="musicalnotedbl" unicode="&#x266b;" horiz-adv-x="1536" 
 />
    <glyph glyph-name="uniF004" unicode="&#xf004;" horiz-adv-x="682" 
 />
    <glyph glyph-name="uniF005" unicode="&#xf005;" horiz-adv-x="682" 
 />
  </font>
</defs>
</svg>
