<svg xmlns="http://www.w3.org/2000/svg" width="38" height="38" viewBox="0 0 533.15 533.15"><defs><style>.cls-1{fill:#eec900}.cls-2{fill:#4d4d4d}</style></defs><title>Pico y placa hoy</title><rect width="16.83" height="107.72" x="258.01" y="32.12" class="cls-1"/><circle cx="266.42" cy="168.73" r="83.57" class="cls-2"/><rect width="419.72" height="93.48" x="56.57" y="229.94" class="cls-2" rx="25.49" ry="25.49"/><rect width="65.7" height="121.32" x="233.57" y="331.76" class="cls-1"/><path d="M452.14,185.7V318.91c0,43-33,78.25-73.24,78.25H154c-40.28,0-73.24-35.21-73.24-78.25V185.7c0-43,33-78.25,73.24-78.25h225C419.18,107.45,452.14,142.66,452.14,185.7Z" class="cls-2"/><rect width="286" height="199.22" x="123.42" y="166.34" class="cls-1" rx="40.33" ry="40.33"/><circle cx="266.42" cy="38.44" r="22.52" class="cls-2"/><circle cx="189.78" cy="228.1" r="32.66" class="cls-2"/><path d="M375.73,229.29c0,18-14.62,31.46-32.66,31.46s-32.65-13.43-32.65-31.46a32.66,32.66,0,1,1,65.31,0Z" class="cls-2"/><path d="M205.16,288.8s4.22,0,11.09.27c1.1,0,99.3,0,100.19,0,7.07-.27,11.43-.27,11.43-.27,7.86,0,14.29,5.46,14.29,12.14h0c0,7.25-3.49,13.85-9.12,18.63a30.27,30.27,0,0,1-3.62,2.64,31.2,31.2,0,0,1-4.51,2.27c-38.23,16-78.56,16-116.8,0a31.61,31.61,0,0,1-4.5-2.27,30.27,30.27,0,0,1-3.62-2.64c-5.63-4.78-9.12-11.38-9.12-18.63h0C190.87,294.26,197.3,288.8,205.16,288.8Z" class="cls-2"/><path d="M367.59,443.82H165.26c-48.1,0-89.48,37.52-106.13,90.18H473.72C457.07,481.34,415.69,443.82,367.59,443.82Z" class="cls-2"/></svg>