<svg xmlns="http://www.w3.org/2000/svg" width="712" height="712" preserveAspectRatio="xMidYMid meet" version="1.0" viewBox="0 0 534 534"><metadata>Created by potrace 1.11, written by Peter Selinger 2001-2013</metadata><g fill="#000" stroke="none"><path d="M2635 5182 c-82 -16 -154 -75 -184 -150 -20 -48 -9 -152 19 -194 29 -41 66 -75 92 -83 17 -6 18 -16 16 -138 l-3 -132 -25 -3 c-137 -16 -307 -92 -431 -192 -25 -21 -36 -22 -345 -23 -339 -1 -391 -6 -508 -57 -164 -70 -316 -224 -393 -397 -55 -126 -66 -205 -67 -497 l-1 -269 -40 -12 c-85 -25 -144 -73 -178 -145 -20 -42 -21 -61 -21 -315 1 -254 2 -273 22 -317 34 -77 91 -123 178 -147 l41 -11 7 -61 c32 -279 245 -551 498 -633 110 -36 147 -38 583 -38 314 0 435 -4 437 -12 3 -6 4 -110 4 -231 l-1 -220 -385 -1 c-404 -2 -451 -6 -591 -50 -302 -95 -586 -382 -724 -729 -15 -38 -31 -82 -36 -97 l-8 -28 2074 0 2075 0 -27 73 c-139 388 -440 694 -779 792 -119 35 -166 38 -579 39 l-360 1 0 230 0 230 405 1 c441 2 514 6 587 30 165 54 302 158 400 304 38 55 97 184 107 230 3 14 10 43 14 65 5 22 9 43 10 48 1 4 2 18 2 31 0 21 8 27 56 41 68 20 136 79 166 144 20 43 22 63 22 301 1 288 -5 324 -62 391 -36 42 -119 89 -158 89 -20 0 -21 4 -21 258 -1 141 -4 275 -7 297 -53 334 -279 589 -581 654 -66 15 -136 18 -392 19 l-312 1 -53 43 c-99 81 -273 155 -398 170 l-25 3 -3 132 c-2 119 -1 132 15 137 10 3 33 20 51 36 113 107 88 295 -49 366 -35 17 -106 31 -134 26z" transform="translate(0.000000,534.000000) scale(0.100000,-0.100000)"/></g></svg>