<svg xmlns="http://www.w3.org/2000/svg" width="793" height="443" viewBox="0 0 793 443"><rect width="793" height="443" rx="57" fill="#f7c000"/><path d="M46.255-32.1q-8.92,0-8.92,11.751V65.735q0,9.769-9.911,9.769H19.213q-9.061,0-9.061-10.194V-140.975q0-9.628,7.221-9.628H55.458q49.412,0,49.412,40.351v40.209Q104.87-32.1,64.8-32.1Zm-8.92-38.369q0,12.884,7.929,12.884h16q17.839,0,17.981-14.017v-35.537q0-8.495-5.734-12.955t-15.645-4.46h-8.07q-12.459,0-12.459,9.061ZM128.1-150.461h12.884q4.247,0,7.787,10.335l19.114,62.438q4.814,5.8,9.344.283l20.813-62.721q3.256-10.194,6.654-10.335h11.751q5.946.142,5.946,7.079a21.707,21.707,0,0,1-.283,3.256l-34.4,109.443a15.728,15.728,0,0,0-.991,6.371V68q0,7.787-7.079,7.787l-14.583.142q-6.938-.142-6.938-7.645V-24.312a18.836,18.836,0,0,0-.85-6.371L122.58-140.126a21.874,21.874,0,0,1-.425-3.964Q122.155-150.461,128.1-150.461ZM276.121-32.1q-8.92,0-8.92,11.751V65.735q0,9.769-9.911,9.769h-8.212q-9.061,0-9.061-10.194V-140.975q0-9.628,7.221-9.628h38.086q49.412,0,49.412,40.351v40.209q0,37.944-40.068,37.944ZM267.2-70.467q0,12.884,7.929,12.884h16q17.839,0,17.981-14.017v-35.537q0-8.495-5.734-12.955t-15.645-4.46h-8.07q-12.459,0-12.459,9.061Zm110.041-75.463h11.61q9.486,0,9.486,10.619v74.9q-.142,8.495,6.654,10.477h20.246q9.061-.991,8.778-10.194v-76.879q.991-8.778,10.052-8.92h12.884q9.344,0,10.194,10.619V70.832q0,9.628-9.344,9.769h-13.45q-10.052-.283-10.477-7.787V-11.852q0-9.628-8.07-11.185H407.682q-9.486.991-9.344,10.336V72.389q-.283,8.07-7.362,8.212H375.684q-8.212-.283-8.495-8.778V-134.6Q367.189-145.364,377.242-145.931Zm158.921-4.955q46.581,0,46.581,40.209V20.711Q582.6,75.5,536.163,75.5q-48.138,0-48.138-52.669V-110.677Q488.025-150.886,536.163-150.886Zm-22.228,50.828V26.658q0,22.37,21.945,22.512,21.52-.142,21.521-22.512V-99.775q0-26.051-21.237-26.051Q513.934-125.826,513.934-100.058Zm92.041-50.4h12.884q4.247,0,7.787,10.335L645.76-77.688q4.814,5.8,9.344.283l20.813-62.721q3.256-10.194,6.654-10.335h11.751q5.946.142,5.946,7.079a21.706,21.706,0,0,1-.283,3.256l-34.4,109.443a15.728,15.728,0,0,0-.991,6.371V68q0,7.787-7.079,7.787l-14.583.142q-6.938-.142-6.938-7.645V-24.312a18.836,18.836,0,0,0-.849-6.371L600.453-140.126a21.876,21.876,0,0,1-.425-3.964Q600.028-150.461,605.975-150.461Z" transform="translate(41.855 256.886)"/><g transform="translate(15 15)" fill="none" stroke="#000" stroke-width="16"><rect width="763" height="413" rx="57" stroke="none"/><rect x="8" y="8" width="747" height="397" rx="49" fill="none"/></g></svg>